<?xml version="1.0" encoding="UTF-8"?><svg id="Capa_1" xmlns="http://www.w3.org/2000/svg" viewBox="0 0 1190.55 841.89"><defs><style>.cls-1{fill:#ffecd2;}.cls-2{fill:#164194;}.cls-3{fill:#036de0;}.cls-4{fill:#ff674c;}</style></defs><rect class="cls-2" x="310.14" y="183.48" width="570.27" height="103.87" rx="10.1" ry="10.1"/><path class="cls-1" d="M382.67,266.54l-5.13-6.66c-2.63-3.42-8.1-1.56-8.1,2.76v1.15c0,2.5-2.02,4.52-4.52,4.52h-21.46c-2.5,0-4.52-2.02-4.52-4.52v-50.27c0-2.5,2.02-4.52,4.52-4.52h21.46c2.5,0,4.52,2.02,4.52,4.52v2.85c0,4.52,5.9,6.24,8.33,2.43l4.92-7.71c.83-1.3,2.27-2.09,3.81-2.09h23.08c4.22,0,6.54,4.9,3.88,8.17l-15.91,19.49c-1.35,1.66-1.36,4.03-.01,5.7l15.04,18.59c2.39,2.95.29,7.36-3.51,7.36h-22.81c-1.4,0-2.72-.65-3.58-1.76Z"/><path class="cls-1" d="M481.12,265.53v-11.03c0-3.13-4.38-3.86-5.39-.89l-4.37,12.82c-.38,1.12-1.44,1.88-2.62,1.88h-12.68c-1.17,0-2.22-.74-2.61-1.85l-4.37-12.4c-1.04-2.94-5.38-2.19-5.38.92v10.56c0,1.53-1.24,2.77-2.77,2.77h-23.27c-1.53,0-2.77-1.24-2.77-2.77v-53.76c0-1.53,1.24-2.77,2.77-2.77h33.44c1.2,0,2.27.78,2.64,1.92l6.01,18.71c.82,2.56,4.44,2.57,5.27,0l6.07-18.72c.37-1.14,1.43-1.92,2.63-1.92h33.8c1.53,0,2.77,1.24,2.77,2.77v53.76c0,1.53-1.24,2.77-2.77,2.77h-23.62c-1.53,0-2.77-1.24-2.77-2.77Z"/><path class="cls-1" d="M606.76,263.58v-49.7c0-2.65,2.15-4.8,4.8-4.8h20.89c2.65,0,4.8,2.15,4.8,4.8v28.72c0,2.65,2.15,4.8,4.8,4.8h16.36c2.65,0,4.8,2.15,4.8,4.8v11.38c0,2.65-2.15,4.8-4.8,4.8h-46.85c-2.65,0-4.8-2.15-4.8-4.8Z"/><path class="cls-1" d="M716.03,264.98l-.23-.84c-.56-2.01-2.4-3.41-4.49-3.41h-12.76c-2.09,0-3.92,1.39-4.49,3.41l-.23.84c-.56,2.01-2.4,3.41-4.49,3.41h-21.21c-3.15,0-5.4-3.07-4.44-6.07l15.96-49.99c.62-1.93,2.41-3.24,4.44-3.24h41.46c2.03,0,3.83,1.32,4.44,3.26l15.74,49.99c.94,3-1.3,6.06-4.44,6.06h-20.79c-2.09,0-3.92-1.39-4.49-3.41ZM702.81,232.67l-2.96,8.67c-.54,1.57.63,3.21,2.3,3.21h5.8c1.65,0,2.82-1.61,2.31-3.18l-2.84-8.67c-.72-2.22-3.85-2.24-4.6-.03Z"/><path class="cls-1" d="M746.5,212.52c0-1.9,1.54-3.44,3.44-3.44h57.2c5.69,0,9.25,1.07,12.45,3.65,3.2,2.67,4.98,6.4,4.98,10.49,0,4.8-2.31,9.16-6.4,11.91-.12.08-.23.16-.35.23-2.22,1.45-2,4.74.36,5.95.03.01.05.03.08.04,4.18,1.96,6.76,6.31,6.76,11.2,0,9.6-8.71,15.83-22.14,15.83h-52.93c-1.9,0-3.44-1.54-3.44-3.44v-52.43ZM788.38,233.53c4.18,0,5.69-1.16,5.69-4.45s-1.51-4.36-5.69-4.36h-7.94c-1.9,0-3.44,1.54-3.44,3.44v1.93c0,1.9,1.54,3.44,3.44,3.44h7.94ZM789.89,254.16c3.73,0,5.25-1.24,5.25-4.36s-1.42-4.36-5.25-4.36h-9.45c-1.9,0-3.44,1.54-3.44,3.44v1.84c0,1.9,1.54,3.44,3.44,3.44h9.45Z"/><path class="cls-1" d="M851.6,214.46c0,7.49-6.64,13.58-14.83,13.58s-14.87-6.09-14.87-13.58,6.64-13.62,15.11-13.62c7.96,0,14.6,6.17,14.6,13.62ZM825.64,214.46c0,5.54,5,10.11,11.13,10.11s11.09-4.53,11.09-10.11-4.96-10.15-10.93-10.15c-6.32,0-11.28,4.45-11.28,10.15ZM843.48,219.57c0,.81-.41,1.27-.95,1.34-1.66.22-2.9.3-4.79.3-3.63,0-5.5-.39-7.03-1.52-1.56-1.13-2.5-3.12-2.5-5.35,0-4.37,2.93-6.68,8.47-6.68,1.47,0,3,.1,4.81.32,1.26.15,2.21,1.22,2.21,2.49h0c0,1.47-1.27,2.65-2.73,2.5-.81-.08-1.54-.12-2.26-.12-2.5,0-3.47.59-3.47,2.03s.94,1.91,3.55,1.91c.68,0,1.32-.03,1.95-.08,1.47-.13,2.74,1.02,2.74,2.49v.36Z"/><path class="cls-1" d="M591.1,227.93c-2.21-6.95-5.85-12.83-16-16.89-6.19-2.42-14.27-3.72-23.49-3.72-12.71,0-22.67,2.31-29.7,6.85-7.38,4.8-11.29,13.25-11.29,24.27,0,8.89,2.35,16.13,6.97,21.29,1.41,1.56,3.23,3.12,5.91,4.59h0c.22.12.45.24.67.36,2.13,1.1,4.77,2.15,8.11,3.11,5.43,1.44,12,2.21,19.32,2.21,13.6,0,23.83-2.49,30.76-7.47,6.49-4.71,10.14-13.34,10.14-23.83,0-3.97-.47-7.58-1.4-10.8v.03ZM541.38,238.87c0-7.47,3.47-11.47,10.22-11.47,1.59,0,3.01.24,4.24.71,1.04.4,1.21,1.81.32,2.48l-12.48,9.42c-.95.72-2.31.04-2.31-1.15h0ZM551.61,252.83c-2.9,0-5.2-.83-6.87-2.48-.62-.61-.54-1.64.15-2.16,2.99-2.25,10.81-8.16,14.54-10.98.93-.7,2.27-.07,2.3,1.09,0,.18,0,.37,0,.57,0,9.34-3.38,13.96-10.14,13.96Z"/><rect class="cls-3" x="310.14" y="307.17" width="570.27" height="103.87" rx="10.1" ry="10.1"/><path class="cls-1" d="M382.67,390.23l-5.13-6.66c-2.63-3.42-8.1-1.56-8.1,2.76v1.15c0,2.5-2.02,4.52-4.52,4.52h-21.46c-2.5,0-4.52-2.02-4.52-4.52v-50.27c0-2.5,2.02-4.52,4.52-4.52h21.46c2.5,0,4.52,2.02,4.52,4.52v2.85c0,4.52,5.9,6.24,8.33,2.43l4.92-7.71c.83-1.3,2.27-2.09,3.81-2.09h23.08c4.22,0,6.54,4.9,3.88,8.17l-15.91,19.49c-1.35,1.66-1.36,4.03-.01,5.7l15.04,18.59c2.39,2.95.29,7.36-3.51,7.36h-22.81c-1.4,0-2.72-.65-3.58-1.76Z"/><path class="cls-1" d="M481.12,389.22v-11.03c0-3.13-4.38-3.86-5.39-.89l-4.37,12.82c-.38,1.12-1.44,1.88-2.62,1.88h-12.68c-1.17,0-2.22-.74-2.61-1.85l-4.37-12.4c-1.04-2.94-5.38-2.19-5.38.92v10.56c0,1.53-1.24,2.77-2.77,2.77h-23.27c-1.53,0-2.77-1.24-2.77-2.77v-53.76c0-1.53,1.24-2.77,2.77-2.77h33.44c1.2,0,2.27.78,2.64,1.92l6.01,18.71c.82,2.56,4.44,2.57,5.27,0l6.07-18.72c.37-1.14,1.43-1.92,2.63-1.92h33.8c1.53,0,2.77,1.24,2.77,2.77v53.76c0,1.53-1.24,2.77-2.77,2.77h-23.62c-1.53,0-2.77-1.24-2.77-2.77Z"/><path class="cls-1" d="M606.76,387.27v-49.7c0-2.65,2.15-4.8,4.8-4.8h20.89c2.65,0,4.8,2.15,4.8,4.8v28.72c0,2.65,2.15,4.8,4.8,4.8h16.36c2.65,0,4.8,2.15,4.8,4.8v11.38c0,2.65-2.15,4.8-4.8,4.8h-46.85c-2.65,0-4.8-2.15-4.8-4.8Z"/><path class="cls-1" d="M716.03,388.67l-.23-.84c-.56-2.01-2.4-3.41-4.49-3.41h-12.76c-2.09,0-3.92,1.39-4.49,3.41l-.23.84c-.56,2.01-2.4,3.41-4.49,3.41h-21.21c-3.15,0-5.4-3.07-4.44-6.07l15.96-49.99c.62-1.93,2.41-3.24,4.44-3.24h41.46c2.03,0,3.83,1.32,4.44,3.26l15.74,49.99c.94,3-1.3,6.06-4.44,6.06h-20.79c-2.09,0-3.92-1.39-4.49-3.41ZM702.81,356.36l-2.96,8.67c-.54,1.57.63,3.21,2.3,3.21h5.8c1.65,0,2.82-1.61,2.31-3.18l-2.84-8.67c-.72-2.22-3.85-2.24-4.6-.03Z"/><path class="cls-1" d="M746.5,336.21c0-1.9,1.54-3.44,3.44-3.44h57.2c5.69,0,9.25,1.07,12.45,3.65,3.2,2.67,4.98,6.4,4.98,10.49,0,4.8-2.31,9.16-6.4,11.91-.12.08-.23.16-.35.23-2.22,1.45-2,4.74.36,5.95.03.01.05.03.08.04,4.18,1.96,6.76,6.31,6.76,11.2,0,9.6-8.71,15.83-22.14,15.83h-52.93c-1.9,0-3.44-1.54-3.44-3.44v-52.43ZM788.38,357.22c4.18,0,5.69-1.16,5.69-4.45s-1.51-4.36-5.69-4.36h-7.94c-1.9,0-3.44,1.54-3.44,3.44v1.93c0,1.9,1.54,3.44,3.44,3.44h7.94ZM789.89,377.85c3.73,0,5.25-1.24,5.25-4.36s-1.42-4.36-5.25-4.36h-9.45c-1.9,0-3.44,1.54-3.44,3.44v1.84c0,1.9,1.54,3.44,3.44,3.44h9.45Z"/><path class="cls-1" d="M851.6,338.15c0,7.49-6.64,13.58-14.83,13.58s-14.87-6.09-14.87-13.58,6.64-13.62,15.11-13.62c7.96,0,14.6,6.17,14.6,13.62ZM825.64,338.15c0,5.54,5,10.11,11.13,10.11s11.09-4.53,11.09-10.11-4.96-10.15-10.93-10.15c-6.32,0-11.28,4.45-11.28,10.15ZM843.48,343.26c0,.81-.41,1.27-.95,1.34-1.66.22-2.9.3-4.79.3-3.63,0-5.5-.39-7.03-1.52-1.56-1.13-2.5-3.12-2.5-5.35,0-4.37,2.93-6.68,8.47-6.68,1.47,0,3,.1,4.81.32,1.26.15,2.21,1.22,2.21,2.49h0c0,1.47-1.27,2.65-2.73,2.5-.81-.08-1.54-.12-2.26-.12-2.5,0-3.47.59-3.47,2.03s.94,1.91,3.55,1.91c.68,0,1.32-.03,1.95-.08,1.47-.13,2.74,1.02,2.74,2.49v.36Z"/><path class="cls-1" d="M591.1,351.61c-2.21-6.95-5.85-12.83-16-16.89-6.19-2.42-14.27-3.72-23.49-3.72-12.71,0-22.67,2.31-29.7,6.85-7.38,4.8-11.29,13.25-11.29,24.27,0,8.89,2.35,16.13,6.97,21.29,1.41,1.56,3.23,3.12,5.91,4.59h0c.22.12.45.24.67.36,2.13,1.1,4.77,2.15,8.11,3.11,5.43,1.44,12,2.21,19.32,2.21,13.6,0,23.83-2.49,30.76-7.47,6.49-4.71,10.14-13.34,10.14-23.83,0-3.97-.47-7.58-1.4-10.8v.03ZM541.38,362.56c0-7.47,3.47-11.47,10.22-11.47,1.59,0,3.01.24,4.24.71,1.04.4,1.21,1.81.32,2.48l-12.48,9.42c-.95.72-2.31.04-2.31-1.15h0ZM551.61,376.52c-2.9,0-5.2-.83-6.87-2.48-.62-.61-.54-1.64.15-2.16,2.99-2.25,10.81-8.16,14.54-10.98.93-.7,2.27-.07,2.3,1.09,0,.18,0,.37,0,.57,0,9.34-3.38,13.96-10.14,13.96Z"/><rect class="cls-4" x="310.14" y="430.85" width="570.27" height="103.87" rx="10.1" ry="10.1"/><path class="cls-1" d="M382.67,513.92l-5.13-6.66c-2.63-3.42-8.1-1.56-8.1,2.76v1.15c0,2.5-2.02,4.52-4.52,4.52h-21.46c-2.5,0-4.52-2.02-4.52-4.52v-50.27c0-2.5,2.02-4.52,4.52-4.52h21.46c2.5,0,4.52,2.02,4.52,4.52v2.85c0,4.52,5.9,6.24,8.33,2.43l4.92-7.71c.83-1.3,2.27-2.09,3.81-2.09h23.08c4.22,0,6.54,4.9,3.88,8.17l-15.91,19.49c-1.35,1.66-1.36,4.03-.01,5.7l15.04,18.59c2.39,2.95.29,7.36-3.51,7.36h-22.81c-1.4,0-2.72-.65-3.58-1.76Z"/><path class="cls-1" d="M481.12,512.91v-11.03c0-3.13-4.38-3.86-5.39-.89l-4.37,12.82c-.38,1.12-1.44,1.88-2.62,1.88h-12.68c-1.17,0-2.22-.74-2.61-1.85l-4.37-12.4c-1.04-2.94-5.38-2.19-5.38.92v10.56c0,1.53-1.24,2.77-2.77,2.77h-23.27c-1.53,0-2.77-1.24-2.77-2.77v-53.76c0-1.53,1.24-2.77,2.77-2.77h33.44c1.2,0,2.27.78,2.64,1.92l6.01,18.71c.82,2.56,4.44,2.57,5.27,0l6.07-18.72c.37-1.14,1.43-1.92,2.63-1.92h33.8c1.53,0,2.77,1.24,2.77,2.77v53.76c0,1.53-1.24,2.77-2.77,2.77h-23.62c-1.53,0-2.77-1.24-2.77-2.77Z"/><path class="cls-1" d="M606.76,510.96v-49.7c0-2.65,2.15-4.8,4.8-4.8h20.89c2.65,0,4.8,2.15,4.8,4.8v28.72c0,2.65,2.15,4.8,4.8,4.8h16.36c2.65,0,4.8,2.15,4.8,4.8v11.38c0,2.65-2.15,4.8-4.8,4.8h-46.85c-2.65,0-4.8-2.15-4.8-4.8Z"/><path class="cls-1" d="M716.03,512.35l-.23-.84c-.56-2.01-2.4-3.41-4.49-3.41h-12.76c-2.09,0-3.92,1.39-4.49,3.41l-.23.84c-.56,2.01-2.4,3.41-4.49,3.41h-21.21c-3.15,0-5.4-3.07-4.44-6.07l15.96-49.99c.62-1.93,2.41-3.24,4.44-3.24h41.46c2.03,0,3.83,1.32,4.44,3.26l15.74,49.99c.94,3-1.3,6.06-4.44,6.06h-20.79c-2.09,0-3.92-1.39-4.49-3.41ZM702.81,480.05l-2.96,8.67c-.54,1.57.63,3.21,2.3,3.21h5.8c1.65,0,2.82-1.61,2.31-3.18l-2.84-8.67c-.72-2.22-3.85-2.24-4.6-.03Z"/><path class="cls-1" d="M746.5,459.89c0-1.9,1.54-3.44,3.44-3.44h57.2c5.69,0,9.25,1.07,12.45,3.65,3.2,2.67,4.98,6.4,4.98,10.49,0,4.8-2.31,9.16-6.4,11.91-.12.08-.23.16-.35.23-2.22,1.45-2,4.74.36,5.95.03.01.05.03.08.04,4.18,1.96,6.76,6.31,6.76,11.2,0,9.6-8.71,15.83-22.14,15.83h-52.93c-1.9,0-3.44-1.54-3.44-3.44v-52.43ZM788.38,480.91c4.18,0,5.69-1.16,5.69-4.45s-1.51-4.36-5.69-4.36h-7.94c-1.9,0-3.44,1.54-3.44,3.44v1.93c0,1.9,1.54,3.44,3.44,3.44h7.94ZM789.89,501.53c3.73,0,5.25-1.24,5.25-4.36s-1.42-4.36-5.25-4.36h-9.45c-1.9,0-3.44,1.54-3.44,3.44v1.84c0,1.9,1.54,3.44,3.44,3.44h9.45Z"/><path class="cls-1" d="M851.6,461.83c0,7.49-6.64,13.58-14.83,13.58s-14.87-6.09-14.87-13.58,6.64-13.62,15.11-13.62c7.96,0,14.6,6.17,14.6,13.62ZM825.64,461.83c0,5.54,5,10.11,11.13,10.11s11.09-4.53,11.09-10.11-4.96-10.15-10.93-10.15c-6.32,0-11.28,4.45-11.28,10.15ZM843.48,466.95c0,.81-.41,1.27-.95,1.34-1.66.22-2.9.3-4.79.3-3.63,0-5.5-.39-7.03-1.52-1.56-1.13-2.5-3.12-2.5-5.35,0-4.37,2.93-6.68,8.47-6.68,1.47,0,3,.1,4.81.32,1.26.15,2.21,1.22,2.21,2.49h0c0,1.47-1.27,2.65-2.73,2.5-.81-.08-1.54-.12-2.26-.12-2.5,0-3.47.59-3.47,2.03s.94,1.91,3.55,1.91c.68,0,1.32-.03,1.95-.08,1.47-.13,2.74,1.02,2.74,2.49v.36Z"/><path class="cls-1" d="M591.1,475.3c-2.21-6.95-5.85-12.83-16-16.89-6.19-2.42-14.27-3.72-23.49-3.72-12.71,0-22.67,2.31-29.7,6.85-7.38,4.8-11.29,13.25-11.29,24.27,0,8.89,2.35,16.13,6.97,21.29,1.41,1.56,3.23,3.12,5.91,4.59h0c.22.12.45.24.67.36,2.13,1.1,4.77,2.15,8.11,3.11,5.43,1.44,12,2.21,19.32,2.21,13.6,0,23.83-2.49,30.76-7.47,6.49-4.71,10.14-13.34,10.14-23.83,0-3.97-.47-7.58-1.4-10.8v.03ZM541.38,486.25c0-7.47,3.47-11.47,10.22-11.47,1.59,0,3.01.24,4.24.71,1.04.4,1.21,1.81.32,2.48l-12.48,9.42c-.95.72-2.31.04-2.31-1.15h0ZM551.61,500.21c-2.9,0-5.2-.83-6.87-2.48-.62-.61-.54-1.64.15-2.16,2.99-2.25,10.81-8.16,14.54-10.98.93-.7,2.27-.07,2.3,1.09,0,.18,0,.37,0,.57,0,9.34-3.38,13.96-10.14,13.96Z"/><rect class="cls-1" x="310.14" y="554.54" width="570.27" height="103.87" rx="10.1" ry="10.1"/><path class="cls-2" d="M382.67,637.6l-5.13-6.66c-2.63-3.42-8.1-1.56-8.1,2.76v1.15c0,2.5-2.02,4.52-4.52,4.52h-21.46c-2.5,0-4.52-2.02-4.52-4.52v-50.27c0-2.5,2.02-4.52,4.52-4.52h21.46c2.5,0,4.52,2.02,4.52,4.52v2.85c0,4.52,5.9,6.24,8.33,2.43l4.92-7.71c.83-1.3,2.27-2.09,3.81-2.09h23.08c4.22,0,6.54,4.9,3.88,8.17l-15.91,19.49c-1.35,1.66-1.36,4.03-.01,5.7l15.04,18.59c2.39,2.95.29,7.36-3.51,7.36h-22.81c-1.4,0-2.72-.65-3.58-1.76Z"/><path class="cls-2" d="M481.12,636.6v-11.03c0-3.13-4.38-3.86-5.39-.89l-4.37,12.82c-.38,1.12-1.44,1.88-2.62,1.88h-12.68c-1.17,0-2.22-.74-2.61-1.85l-4.37-12.4c-1.04-2.94-5.38-2.19-5.38.92v10.56c0,1.53-1.24,2.77-2.77,2.77h-23.27c-1.53,0-2.77-1.24-2.77-2.77v-53.76c0-1.53,1.24-2.77,2.77-2.77h33.44c1.2,0,2.27.78,2.64,1.92l6.01,18.71c.82,2.56,4.44,2.57,5.27,0l6.07-18.72c.37-1.14,1.43-1.92,2.63-1.92h33.8c1.53,0,2.77,1.24,2.77,2.77v53.76c0,1.53-1.24,2.77-2.77,2.77h-23.62c-1.53,0-2.77-1.24-2.77-2.77Z"/><path class="cls-2" d="M606.76,634.64v-49.7c0-2.65,2.15-4.8,4.8-4.8h20.89c2.65,0,4.8,2.15,4.8,4.8v28.72c0,2.65,2.15,4.8,4.8,4.8h16.36c2.65,0,4.8,2.15,4.8,4.8v11.38c0,2.65-2.15,4.8-4.8,4.8h-46.85c-2.65,0-4.8-2.15-4.8-4.8Z"/><path class="cls-2" d="M716.03,636.04l-.23-.84c-.56-2.01-2.4-3.41-4.49-3.41h-12.76c-2.09,0-3.92,1.39-4.49,3.41l-.23.84c-.56,2.01-2.4,3.41-4.49,3.41h-21.21c-3.15,0-5.4-3.07-4.44-6.07l15.96-49.99c.62-1.93,2.41-3.24,4.44-3.24h41.46c2.03,0,3.83,1.32,4.44,3.26l15.74,49.99c.94,3-1.3,6.06-4.44,6.06h-20.79c-2.09,0-3.92-1.39-4.49-3.41ZM702.81,603.73l-2.96,8.67c-.54,1.57.63,3.21,2.3,3.21h5.8c1.65,0,2.82-1.61,2.31-3.18l-2.84-8.67c-.72-2.22-3.85-2.24-4.6-.03Z"/><path class="cls-2" d="M746.5,583.58c0-1.9,1.54-3.44,3.44-3.44h57.2c5.69,0,9.25,1.07,12.45,3.65,3.2,2.67,4.98,6.4,4.98,10.49,0,4.8-2.31,9.16-6.4,11.91-.12.08-.23.16-.35.23-2.22,1.45-2,4.74.36,5.95.03.01.05.03.08.04,4.18,1.96,6.76,6.31,6.76,11.2,0,9.6-8.71,15.83-22.14,15.83h-52.93c-1.9,0-3.44-1.54-3.44-3.44v-52.43ZM788.38,604.59c4.18,0,5.69-1.16,5.69-4.45s-1.51-4.36-5.69-4.36h-7.94c-1.9,0-3.44,1.54-3.44,3.44v1.93c0,1.9,1.54,3.44,3.44,3.44h7.94ZM789.89,625.22c3.73,0,5.25-1.24,5.25-4.36s-1.42-4.36-5.25-4.36h-9.45c-1.9,0-3.44,1.54-3.44,3.44v1.84c0,1.9,1.54,3.44,3.44,3.44h9.45Z"/><path class="cls-2" d="M851.6,585.52c0,7.49-6.64,13.58-14.83,13.58s-14.87-6.09-14.87-13.58,6.64-13.62,15.11-13.62c7.96,0,14.6,6.17,14.6,13.62ZM825.64,585.52c0,5.54,5,10.11,11.13,10.11s11.09-4.53,11.09-10.11-4.96-10.15-10.93-10.15c-6.32,0-11.28,4.45-11.28,10.15ZM843.48,590.63c0,.81-.41,1.27-.95,1.34-1.66.22-2.9.3-4.79.3-3.63,0-5.5-.39-7.03-1.52-1.56-1.13-2.5-3.12-2.5-5.35,0-4.37,2.93-6.68,8.47-6.68,1.47,0,3,.1,4.81.32,1.26.15,2.21,1.22,2.21,2.49h0c0,1.47-1.27,2.65-2.73,2.5-.81-.08-1.54-.12-2.26-.12-2.5,0-3.47.59-3.47,2.03s.94,1.91,3.55,1.91c.68,0,1.32-.03,1.95-.08,1.47-.13,2.74,1.02,2.74,2.49v.36Z"/><path class="cls-2" d="M591.1,598.99c-2.21-6.95-5.85-12.83-16-16.89-6.19-2.42-14.27-3.72-23.49-3.72-12.71,0-22.67,2.31-29.7,6.85-7.38,4.8-11.29,13.25-11.29,24.27,0,8.89,2.35,16.13,6.97,21.29,1.41,1.56,3.23,3.12,5.91,4.59h0c.22.12.45.24.67.36,2.13,1.1,4.77,2.15,8.11,3.11,5.43,1.44,12,2.21,19.32,2.21,13.6,0,23.83-2.49,30.76-7.47,6.49-4.71,10.14-13.34,10.14-23.83,0-3.97-.47-7.58-1.4-10.8v.03ZM541.38,609.94c0-7.47,3.47-11.47,10.22-11.47,1.59,0,3.01.24,4.24.71,1.04.4,1.21,1.81.32,2.48l-12.48,9.42c-.95.72-2.31.04-2.31-1.15h0ZM551.61,623.89c-2.9,0-5.2-.83-6.87-2.48-.62-.61-.54-1.64.15-2.16,2.99-2.25,10.81-8.16,14.54-10.98.93-.7,2.27-.07,2.3,1.09,0,.18,0,.37,0,.57,0,9.34-3.38,13.96-10.14,13.96Z"/></svg>